<svg width="24" height="24" viewBox="0 0 24 24" fill="none" xmlns="http://www.w3.org/2000/svg">
<path fill-rule="evenodd" clip-rule="evenodd" d="M22 5.36665C22 4.60636 21.6927 3.87722 21.1457 3.33962C20.5987 2.80202 19.8569 2.5 19.0833 2.5H4.91667C4.14447 2.5043 3.40514 2.8077 2.85911 3.34437C2.31307 3.88104 2.00438 4.60769 2 5.36665V15.6769C2 17.4891 3.21834 19.0749 4.96935 19.5418L13.227 21.7439C15.1315 22.2517 17 20.8163 17 18.8452V11.3538C17.0001 10.5919 16.747 9.85069 16.2792 9.24305C15.8114 8.63542 15.1545 8.19458 14.4083 7.98758L5.38333 5.53045C5.2231 5.4881 5.08655 5.38491 5.00372 5.2436C4.92089 5.10229 4.89857 4.93442 4.94167 4.77694C4.98476 4.61945 5.08975 4.48524 5.23353 4.40383C5.37731 4.32242 5.5481 4.30049 5.70833 4.34284C8.62889 5.11241 8.65083 5.1589 8.67738 5.16171C8.67738 5.16171 8.68082 5.16189 8.68333 5.16189H19.0833C19.2491 5.16189 19.4081 5.2266 19.5253 5.3418C19.6425 5.457 19.7083 5.61325 19.7083 5.77617C19.7083 5.93908 19.6425 6.09533 19.5253 6.21053C19.4081 6.32573 19.2491 6.39045 19.0833 6.39045H14.7167C14.6669 6.39205 14.6194 6.41111 14.5827 6.44416C14.546 6.47721 14.5226 6.52208 14.5167 6.57064C14.5087 6.6203 14.5195 6.67111 14.5472 6.71341C14.5749 6.7557 14.6174 6.78651 14.6667 6.79997C15.648 7.04709 16.5236 7.59504 17.1667 8.36434C17.1869 8.38827 17.2125 8.40734 17.2413 8.42012C17.2702 8.43289 17.3017 8.43902 17.3333 8.43805H19.0833C19.2491 8.43805 19.4081 8.50277 19.5253 8.61797C19.6425 8.73317 19.7083 8.88942 19.7083 9.05233C19.7083 9.21525 19.6425 9.3715 19.5253 9.4867C19.4081 9.6019 19.2491 9.66662 19.0833 9.66662H18.25C18.2168 9.66685 18.1842 9.67521 18.1551 9.69094C18.126 9.70667 18.1013 9.72927 18.0833 9.75671C18.0694 9.78475 18.0621 9.81557 18.0621 9.8468C18.0621 9.87804 18.0694 9.90885 18.0833 9.9369C18.237 10.3941 18.3157 10.8724 18.3167 11.3538V17.038C18.3167 17.0923 18.3386 17.1444 18.3777 17.1828C18.4168 17.2212 18.4697 17.2428 18.525 17.2428H19.15C19.9119 17.2256 20.6368 16.9161 21.1694 16.3803C21.7021 15.8446 22.0002 15.1252 22 14.3761V5.36665ZM12.9178 16.3625V9.22114L10.3822 9.98881V15.6831C10.3822 16.032 10.2487 16.3308 10.0109 16.5138C9.77314 16.6968 9.45068 16.749 9.11444 16.6589C8.77821 16.5688 8.45574 16.3438 8.21799 16.0334C7.98023 15.723 7.84666 15.3526 7.84666 15.0037V10.7565L5.67333 11.4145V14.4214C5.67333 16.4971 7.29511 18.6146 9.29555 19.1506C11.296 19.6866 12.9178 18.4383 12.9178 16.3625Z" fill="#0D67FE"/>
<path d="M10.3822 12.3987L7.84666 13.6926V15.0081C7.84666 15.0847 7.8531 15.1623 7.86567 15.2401L10.3822 14.8536V12.3987Z" fill="#00C9FF"/>
<path d="M5.82694 15.5533C5.75942 15.3027 5.713 15.0483 5.69 14.7931L3.5 15.9107L5.82694 15.5533Z" fill="#00C9FF"/>
<path d="M12.9178 14.4641V11.1049L15.0911 9.99582V14.1303L12.9178 14.4641Z" fill="#00C9FF"/>
</svg>
