<svg width="24" height="24" viewBox="0 0 24 24" fill="none" xmlns="http://www.w3.org/2000/svg">
  <g clip-path="url(#clip0_102_326)">
  <path d="M23.641 14.9045C22.0381 21.3339 15.5262 25.2467 9.09606 23.6434C2.66863 22.0405 -1.24415 15.5282 0.359423 9.0994C1.96159 2.66933 8.47349 -1.24375 14.9016 0.359122C21.3313 1.96199 25.2438 8.475 23.6408 14.9047L23.6409 14.9045H23.641Z" fill="#F7931A"/>
  <path d="M17.3089 10.2738C17.5477 8.67663 16.3318 7.81812 14.6691 7.24541L15.2085 5.08197L13.8915 4.75382L13.3665 6.8603C13.0202 6.77395 12.6647 6.69258 12.3113 6.61192L12.8402 4.49154L11.5241 4.16339L10.9844 6.32612C10.6979 6.26089 10.4165 6.19642 10.1435 6.12849L10.145 6.12169L8.32891 5.66818L7.97858 7.07476C7.97858 7.07476 8.95565 7.29873 8.93506 7.31252C9.46835 7.44562 9.56479 7.79865 9.54878 8.07846L8.93436 10.5431C8.97108 10.5525 9.01871 10.5659 9.07127 10.5871C9.02733 10.5762 8.98058 10.5642 8.93207 10.5526L8.07086 14.0053C8.00568 14.1673 7.84026 14.4104 7.46741 14.3181C7.4806 14.3372 6.51023 14.0792 6.51023 14.0792L5.85638 15.5867L7.57018 16.014C7.88901 16.0939 8.20144 16.1776 8.50912 16.2562L7.96415 18.4445L9.27958 18.7726L9.81926 16.6076C10.1786 16.7052 10.5274 16.7952 10.8688 16.88L10.3309 19.0348L11.6479 19.3629L12.1928 17.1788C14.4385 17.6038 16.1271 17.4325 16.8378 15.4012C17.4105 13.7659 16.8093 12.8226 15.6279 12.2075C16.4884 12.009 17.1365 11.4431 17.3093 10.2739L17.3089 10.2736L17.3089 10.2738ZM14.2999 14.493C13.893 16.1284 11.1395 15.2444 10.2468 15.0227L10.97 12.1236C11.8626 12.3465 14.7253 12.7875 14.3 14.493H14.2999ZM14.7072 10.2501C14.336 11.7376 12.0442 10.9819 11.3008 10.7965L11.9565 8.16728C12.6999 8.35259 15.094 8.69845 14.7074 10.2501H14.7072Z" fill="white"/>
  </g>
  <defs>
  <clipPath id="clip0_102_326">
  <rect width="24" height="24" fill="white"/>
  </clipPath>
  </defs>
</svg>
  