<svg width="24" height="24" viewBox="0 0 24 24" fill="none" xmlns="http://www.w3.org/2000/svg">
  <g clip-path="url(#clip0_102_440)">
  <path fill-rule="evenodd" clip-rule="evenodd" d="M12 0C18.627 0 24 5.373 24 12C24 18.627 18.627 24 12 24C5.373 24 0 18.627 0 12C0 5.373 5.373 0 12 0Z" fill="#5F80E9"/>
  <path opacity="0.6" fill-rule="evenodd" clip-rule="evenodd" d="M12 21L6.75 13L12 16.429L17.25 13L12 21Z" fill="white"/>
  <path opacity="0.5" fill-rule="evenodd" clip-rule="evenodd" d="M12 21V16.429L17.25 13L12 21Z" fill="white"/>
  <path opacity="0.6" fill-rule="evenodd" clip-rule="evenodd" d="M12 3L17.25 12.143L12 15.57L6.75 12.142L12 3Z" fill="white"/>
  <path opacity="0.5" fill-rule="evenodd" clip-rule="evenodd" d="M12 3L17.25 12.143L12 15.57V9.57V3Z" fill="white"/>
  <path opacity="0.2" fill-rule="evenodd" clip-rule="evenodd" d="M12 3L17.25 12.143L12 9.57V3Z" fill="white"/>
  <path opacity="0.6" fill-rule="evenodd" clip-rule="evenodd" d="M17.25 12.1431L12 15.5701L6.75 12.1421L12 9.57007L17.25 12.1431Z" fill="white"/>
  </g>
  <defs>
  <clipPath id="clip0_102_440">
  <rect width="24" height="24" fill="white"/>
  </clipPath>
  </defs>
</svg>
  