<svg width="24" height="24" viewBox="0 0 24 24" fill="none" xmlns="http://www.w3.org/2000/svg">
  <g clip-path="url(#clip0_102_453)">
  <path fill-rule="evenodd" clip-rule="evenodd" d="M12 0C18.627 0 24 5.373 24 12C24 18.627 18.627 24 12 24C5.373 24 0 18.627 0 12C0 5.373 5.373 0 12 0Z" fill="#8247E5"/>
  <path d="M15.9663 9.34898C15.8175 9.26584 15.6499 9.22219 15.4795 9.22219C15.3091 9.22219 15.1416 9.26584 14.9928 9.34898L12.7595 10.6443L11.242 11.4891L9.00882 12.7845C8.86005 12.8676 8.69249 12.9112 8.5221 12.9112C8.35171 12.9112 8.18415 12.8676 8.03538 12.7845L6.26015 11.7707C6.11571 11.6879 5.99507 11.5692 5.90987 11.4262C5.82467 11.2831 5.77778 11.1205 5.77375 10.9541V8.95474C5.77175 8.78702 5.81611 8.62202 5.90194 8.47791C5.98777 8.33381 6.11173 8.21622 6.26015 8.1381L8.00671 7.1525C8.15548 7.06943 8.32304 7.02582 8.49343 7.02582C8.66382 7.02582 8.83138 7.06943 8.98015 7.1525L10.7267 8.1381C10.8711 8.22092 10.9918 8.33959 11.077 8.48264C11.1622 8.62569 11.2091 8.78828 11.2131 8.95474V10.2501L12.7305 9.37714V8.08178C12.7325 7.91406 12.6882 7.74906 12.6024 7.60495C12.5165 7.46085 12.3926 7.34326 12.2441 7.26514L9.00882 5.4067C8.86005 5.32364 8.69249 5.28003 8.5221 5.28003C8.35171 5.28003 8.18415 5.32364 8.03538 5.4067L4.74232 7.26526C4.59392 7.34337 4.46998 7.46095 4.38415 7.60503C4.29832 7.7491 4.25395 7.91408 4.25592 8.08178V11.8271C4.25393 11.9948 4.29829 12.1598 4.38411 12.3039C4.46994 12.448 4.5939 12.5656 4.74232 12.6437L8.035 14.5023C8.18377 14.5853 8.35132 14.6289 8.52172 14.6289C8.69211 14.6289 8.85966 14.5853 9.00844 14.5023L11.2417 13.2351L12.7591 12.3621L14.9924 11.0949C15.1412 11.0118 15.3088 10.9681 15.4792 10.9681C15.6496 10.9681 15.8171 11.0118 15.9659 11.0949L17.7124 12.0805C17.8569 12.1633 17.9775 12.282 18.0627 12.425C18.1479 12.5681 18.1948 12.7307 18.1988 12.8971V14.8965C18.2008 15.0642 18.1565 15.2292 18.0706 15.3733C17.9848 15.5174 17.8609 15.635 17.7124 15.7131L15.9659 16.7269C15.8171 16.81 15.6495 16.8536 15.4792 16.8536C15.3088 16.8536 15.1412 16.81 14.9924 16.7269L13.2459 15.7413C13.1014 15.6585 12.9808 15.5398 12.8956 15.3967C12.8104 15.2537 12.7635 15.0911 12.7595 14.9247V13.6292L11.242 14.5021V15.7975C11.24 15.9652 11.2844 16.1302 11.3702 16.2743C11.4561 16.4184 11.58 16.536 11.7284 16.6141L15.0211 18.4727C15.1699 18.5558 15.3374 18.5994 15.5078 18.5994C15.6782 18.5994 15.8458 18.5558 15.9945 18.4727L19.2872 16.6141C19.4316 16.5313 19.5523 16.4126 19.6375 16.2696C19.7227 16.1265 19.7696 15.9639 19.7736 15.7975V12.0523C19.7756 11.8846 19.7313 11.7196 19.6454 11.5755C19.5596 11.4314 19.4356 11.3138 19.2872 11.2357L15.9663 9.34898Z" fill="white"/>
  </g>
  <defs>
  <clipPath id="clip0_102_453">
  <rect width="24" height="24" fill="white"/>
  </clipPath>
  </defs>
</svg>
  