<svg width="24" height="24" viewBox="0 0 24 24" fill="none" xmlns="http://www.w3.org/2000/svg">
  <path d="M21.897 17.0475L18.5954 20.5117C18.5236 20.5869 18.4368 20.6469 18.3403 20.6879C18.2438 20.7289 18.1397 20.7501 18.0345 20.75H2.38329C2.30861 20.75 2.23556 20.7286 2.17311 20.6886C2.11066 20.6485 2.06153 20.5915 2.03177 20.5245C2.002 20.4575 1.99289 20.3834 2.00555 20.3114C2.01822 20.2394 2.05211 20.1726 2.10305 20.1192L5.40715 16.655C5.47873 16.5799 5.56529 16.5201 5.66147 16.4791C5.75766 16.4381 5.86143 16.4168 5.96636 16.4167H21.6167C21.6914 16.4167 21.7644 16.438 21.8269 16.4781C21.8893 16.5181 21.9384 16.5752 21.9683 16.6422C21.998 16.7092 22.0071 16.7832 21.9945 16.8553C21.9818 16.9273 21.9479 16.9941 21.897 17.0475ZM18.5954 10.0717C18.5236 9.99641 18.4368 9.93641 18.3403 9.89541C18.2438 9.85442 18.1397 9.83328 18.0345 9.83334H2.38329C2.30861 9.83334 2.23556 9.85468 2.17311 9.89475C2.11066 9.93482 2.06153 9.99186 2.03177 10.0589C2.002 10.1259 1.99289 10.1999 2.00555 10.2719C2.01822 10.3439 2.05211 10.4107 2.10305 10.4642L5.40715 13.9283C5.47873 14.0034 5.56529 14.0633 5.66147 14.1043C5.75766 14.1452 5.86143 14.1665 5.96636 14.1667H21.6167C21.6914 14.1667 21.7644 14.1453 21.8269 14.1053C21.8893 14.0652 21.9384 14.0081 21.9683 13.9411C21.998 13.8741 22.0071 13.8001 21.9945 13.7281C21.9818 13.6561 21.9479 13.5893 21.897 13.5358L18.5954 10.0717ZM2.38329 7.58334H18.0345C18.1397 7.58338 18.2438 7.56226 18.3403 7.52125C18.4368 7.48025 18.5236 7.42025 18.5954 7.345L21.897 3.88083C21.9479 3.82741 21.9818 3.7606 21.9945 3.68859C22.0071 3.61659 21.998 3.54253 21.9683 3.47553C21.9384 3.40852 21.8893 3.35148 21.8269 3.31141C21.7644 3.27135 21.6914 3.25 21.6167 3.25H5.96636C5.86143 3.25017 5.75766 3.27142 5.66147 3.31241C5.56529 3.35341 5.47873 3.41328 5.40715 3.48833L2.10391 6.9525C2.05301 7.00586 2.01913 7.07262 2.00644 7.14453C1.99375 7.21645 2.00278 7.29045 2.03245 7.35743C2.06211 7.42441 2.11111 7.48144 2.17343 7.52157C2.23575 7.5617 2.30869 7.58316 2.38329 7.58334Z" fill="black"/>
  </svg>
  