<svg width="24" height="24" fill="none" xmlns="http://www.w3.org/2000/svg" id="svg1939911015_1669">
  <path fill-rule="evenodd" clip-rule="evenodd"
    d="M22 5.367c0-.76-.307-1.49-.854-2.027a2.943 2.943 0 0 0-2.063-.84H4.917a2.96 2.96 0 0 0-2.058.844A2.858 2.858 0 0 0 2 5.367v10.31a4 4 0 0 0 2.97 3.865l8.257 2.202A3 3 0 0 0 17 18.845v-7.491a3.46 3.46 0 0 0-.72-2.11 3.56 3.56 0 0 0-1.872-1.256L5.383 5.53a.624.624 0 0 1-.38-.286.606.606 0 0 1 .23-.84.635.635 0 0 1 .475-.061c2.92.77 2.943.816 2.97.819h10.404a.63.63 0 0 1 .442.18.609.609 0 0 1 0 .869.63.63 0 0 1-.442.18h-4.366a.21.21 0 0 0-.134.053.203.203 0 0 0-.066.127.202.202 0 0 0 .15.229 4.777 4.777 0 0 1 2.5 1.564.208.208 0 0 0 .166.074h1.75a.63.63 0 0 1 .442.18.609.609 0 0 1 0 .869.63.63 0 0 1-.442.18h-.833a.203.203 0 0 0-.167.09.203.203 0 0 0 0 .18c.154.457.233.935.234 1.417v5.684c0 .054.022.106.06.145a.21.21 0 0 0 .148.06h.625a2.941 2.941 0 0 0 2.02-.863 2.84 2.84 0 0 0 .83-2.004v-9.01Zm-9.082 10.995v-7.14l-2.536.767v5.694c0 .349-.133.648-.371.83-.238.184-.56.236-.897.146a1.723 1.723 0 0 1-.896-.626 1.73 1.73 0 0 1-.371-1.03v-4.246l-2.174.658v3.006c0 2.076 1.622 4.194 3.623 4.73 2 .536 3.622-.713 3.622-2.788Z"
    fill="#0D67FE"></path>
  <path
    d="M12.918 9.221v7.142c0 2.075-1.622 3.324-3.622 2.788-2-.536-3.623-2.654-3.623-4.73v-3.006l2.174-.658v4.247c0 .349.133.719.371 1.03.238.31.56.535.896.625.337.09.66.038.897-.145.238-.183.371-.482.371-.83V9.988l2.536-.768Z"
    fill="#fff"></path>
  <path fill-rule="evenodd" clip-rule="evenodd"
    d="m10.382 12.399-2.535 1.294v1.315c0 .077.006.154.019.232l2.516-.386v-2.455Zm-4.555 3.154a4.463 4.463 0 0 1-.137-.76L3.5 15.911l2.327-.358Zm7.09-1.089v-3.36l2.174-1.108v4.134l-2.173.334Z"
    fill="#00C9FF"></path>
</svg>